Coordinates
version=1
nRows=19
nColumns=63
inDegrees=yes

Units are S.I. units (second, meters, Newtons, ...)
If the header above contains a line with 'inDegrees', this indicates whether rotational values are in degrees (yes) or radians (no).

endheader
time	pelvis_tilt	pelvis_list	pelvis_rotation	pelvis_tx	pelvis_ty	pelvis_tz	hip_flexion_r	hip_adduction_r	hip_rotation_r	knee_angle_r	knee_angle_r_beta	ankle_angle_r	subtalar_angle_r	mtp_angle_r	hip_flexion_l	hip_adduction_l	hip_rotation_l	knee_angle_l	knee_angle_l_beta	ankle_angle_l	subtalar_angle_l	mtp_angle_l	L5_S1_Flex_Ext	L5_S1_Lat_Bending	L5_S1_axial_rotation	L4_L5_Flex_Ext	L4_L5_Lat_Bending	L4_L5_axial_rotation	L3_L4_Flex_Ext	L3_L4_Lat_Bending	L3_L4_axial_rotation	L2_L3_Flex_Ext	L2_L3_Lat_Bending	L2_L3_axial_rotation	L1_L2_Flex_Ext	L1_L2_Lat_Bending	L1_L2_axial_rotation	L1_T12_Flex_Ext	L1_T12_Lat_Bending	L1_T12_axial_rotation	Abs_r3	Abs_r2	Abs_r1	Abs_t1	Abs_t2	neck_flexion	neck_bending	neck_rotation	arm_flex_r	arm_add_r	arm_rot_r	elbow_flex_r	pro_sup_r	wrist_flex_r	wrist_dev_r	arm_flex_l	arm_add_l	arm_rot_l	elbow_flex_l	pro_sup_l	wrist_flex_l	wrist_dev_l
2.000000	0.684457	1.663851	92.508945	0.102505	0.730057	0.762456	-9.352654	1.103967	0.879787	9.439607	0.164752	28.923401	-1.637134	0.000000	-9.521981	-0.820892	-1.765675	8.329644	0.145380	30.845166	3.522147	0.000000	0.134529	0.393555	-0.882534	0.249834	0.523428	-0.937692	0.221018	0.956889	-0.937692	0.153753	0.956889	-0.772217	0.124924	0.802537	-0.717059	0.076870	0.609616	-0.661900	0.960927	4.451971	-4.908388	0.000000	0.000000	12.222886	11.598652	43.704705	-85.280772	-187.199644	-105.578091	104.262564	31.682612	-10.056649	23.856546	-81.973368	-109.704089	-178.211035	129.123882	89.861619	14.640712	-7.859895
2.016667	0.728225	1.820700	92.557514	0.103081	0.731383	0.764808	-9.202514	1.153417	0.376364	9.697316	0.169250	29.087906	-0.780006	0.000000	-9.444926	-0.924498	-1.939879	8.502671	0.148400	30.667999	3.618193	0.000000	0.116310	0.410214	-0.688299	0.215998	0.545585	-0.731317	0.191085	0.997395	-0.731317	0.132930	0.997395	-0.602261	0.108005	0.836509	-0.559243	0.066459	0.635422	-0.516224	0.830787	4.640427	-3.828111	0.000000	0.000000	10.888828	12.464127	43.606456	-86.058685	-189.920937	-104.764149	101.608154	31.093000	-9.696866	21.591285	-84.207976	-111.770619	-180.261208	128.657740	89.033175	14.956520	-9.518731
2.033333	0.788107	1.989111	92.631295	0.103511	0.732637	0.766962	-9.102685	1.218013	-0.141662	9.916525	0.173076	29.204135	0.022386	0.000000	-9.401336	-1.046248	-2.164434	8.668021	0.151286	30.472989	3.769189	0.000000	0.095121	0.426647	-0.481709	0.176649	0.567440	-0.511816	0.156274	1.037349	-0.511816	0.108714	1.037349	-0.421495	0.088329	0.870018	-0.391388	0.054352	0.660876	-0.361282	0.679440	4.826312	-2.679120	0.000000	0.000000	9.387544	13.215080	43.492214	-86.650664	-191.917313	-104.213169	99.558410	30.463369	-8.881559	19.160409	-86.579017	-113.879185	-182.534693	128.060545	88.038266	15.527459	-11.093111
2.050000	0.841518	2.173384	92.736953	0.103842	0.733787	0.768841	-9.069832	1.281035	-0.661628	10.091878	0.176137	29.268608	0.732752	0.000000	-9.408374	-1.167255	-2.403133	8.807095	0.153713	30.255411	3.953219	0.000000	0.070964	0.440214	-0.286062	0.131788	0.585484	-0.303941	0.116587	1.070336	-0.303941	0.081105	1.070336	-0.250304	0.065897	0.897684	-0.232425	0.040549	0.681891	-0.214546	0.506891	4.979786	-1.590989	0.000000	0.000000	7.850746	13.774330	43.358209	-87.072216	-193.361651	-103.897772	98.086217	29.462631	-7.816545	16.694217	-88.731193	-115.814205	-184.682809	127.382384	87.279540	16.228338	-12.630858
2.066667	0.889779	2.345579	92.875160	0.104056	0.734781	0.770355	-9.082814	1.343975	-1.165762	10.216031	0.178303	29.272368	1.314350	0.000000	-9.438187	-1.285299	-2.619297	8.921715	0.155713	30.034062	4.139113	0.000000	0.049834	0.450517	-0.111529	0.092548	0.599188	-0.118500	0.081873	1.095387	-0.118500	0.056956	1.095387	-0.097588	0.046276	0.918695	-0.090617	0.028475	0.697851	-0.083647	0.355962	5.096340	-0.620292	0.000000	0.000000	6.384407	14.210261	43.157929	-87.303728	-194.374402	-103.710303	97.197408	27.026502	-7.213013	14.059656	-90.494846	-117.466964	-186.461504	126.697882	86.789140	16.846588	-14.055685
2.083333	0.926009	2.486986	93.057023	0.104148	0.735582	0.771436	-9.129941	1.404416	-1.639134	10.281667	0.179449	29.222487	1.744724	0.000000	-9.474548	-1.394160	-2.772046	9.007180	0.157205	29.814910	4.302924	0.000000	0.033993	0.456779	0.027303	0.063128	0.607516	0.029009	0.055847	1.110612	0.029009	0.038851	1.110612	0.023890	0.031566	0.931464	0.022183	0.019424	0.707551	0.020477	0.242809	5.167175	0.151849	0.000000	0.000000	5.155200	14.543242	42.891944	-87.345053	-195.093122	-103.571484	96.717396	23.192536	-7.561995	11.530739	-91.597120	-118.708878	-187.623591	126.070152	86.197733	17.580310	-15.040690
2.100000	0.948607	2.586854	93.283140	0.104111	0.736180	0.772063	-9.197670	1.460378	-2.094156	10.293720	0.179659	29.126576	2.043642	0.000000	-9.506297	-1.491244	-2.851164	9.061771	0.158158	29.602166	4.441211	0.000000	0.023565	0.459328	0.118011	0.043763	0.610906	0.125386	0.038716	1.116810	0.125386	0.026933	1.116810	0.103259	0.021883	0.936661	0.095884	0.013465	0.711499	0.088508	0.168325	5.196008	0.656339	0.000000	0.000000	4.291977	14.789931	42.606483	-87.240673	-195.655490	-103.519954	96.428289	19.197581	-8.760464	9.531231	-91.924252	-119.421456	-188.086855	125.587290	85.451908	18.382006	-15.424554
2.116667	0.952547	2.636362	93.533598	0.104011	0.736557	0.772239	-9.269395	1.508884	-2.459189	10.262681	0.179118	28.978951	2.135482	0.000000	-9.525232	-1.570014	-2.881004	9.084465	0.158554	29.400583	4.570284	0.000000	0.020561	0.456698	0.161299	0.038184	0.607408	0.171380	0.033780	1.110415	0.171380	0.023500	1.110415	0.141137	0.019093	0.931298	0.131056	0.011749	0.707425	0.120974	0.146867	5.166257	0.897098	0.000000	0.000000	3.787411	15.032911	42.304210	-87.019727	-196.127065	-103.496145	96.175421	15.053445	-10.734372	7.755371	-91.486573	-119.623545	-187.861498	125.260648	84.573873	19.256748	-15.250251
2.133333	0.938554	2.654747	93.818707	0.103822	0.736750	0.772054	-9.354109	1.546309	-2.846359	10.202224	0.178062	28.813085	2.166409	0.000000	-9.541890	-1.633144	-2.853513	9.082149	0.158513	29.215432	4.695683	0.000000	0.020353	0.449593	0.154479	0.037798	0.597958	0.164134	0.033438	1.093140	0.164134	0.023261	1.093140	0.135169	0.018900	0.916810	0.125514	0.011630	0.696419	0.115859	0.145379	5.085884	0.859165	0.000000	0.000000	3.658312	15.237401	42.035336	-86.721144	-196.562534	-103.538700	95.834867	12.013604	-13.103980	6.526874	-90.654504	-119.318820	-187.292839	125.108177	83.640093	19.979792	-14.664680
2.150000	0.922876	2.663172	94.115065	0.103514	0.736824	0.771631	-9.453472	1.579129	-3.272909	10.133177	0.176857	28.636711	2.195745	0.000000	-9.572134	-1.691162	-2.793255	9.057505	0.158083	29.047035	4.823930	0.000000	0.019741	0.441943	0.113802	0.036660	0.587784	0.120915	0.032432	1.074540	0.120915	0.022561	1.074540	0.099577	0.018331	0.901210	0.092464	0.011280	0.684570	0.085351	0.141005	4.999346	0.632932	0.000000	0.000000	3.820504	15.312580	41.792607	-86.355010	-196.953687	-103.606222	95.366654	10.254676	-15.701077	5.826188	-90.112662	-118.677480	-186.978039	125.096578	82.654919	20.339778	-13.979936
2.166667	0.906879	2.678674	94.424573	0.103132	0.736819	0.771067	-9.576670	1.613841	-3.716539	10.058740	0.175558	28.444126	2.198205	0.000000	-9.619920	-1.751807	-2.735628	9.027042	0.157552	28.913248	4.997510	0.000000	0.017081	0.433579	0.048776	0.031721	0.576660	0.051824	0.028062	1.054205	0.051824	0.019522	1.054205	0.042679	0.015861	0.884155	0.039630	0.009760	0.671614	0.036582	0.122007	4.904736	0.271275	0.000000	0.000000	4.178059	15.251508	41.594396	-85.974233	-197.305211	-103.743194	94.751649	10.395943	-18.282195	5.897565	-89.665699	-117.835842	-186.616869	125.180963	81.815351	20.027324	-13.535592
2.183333	0.884863	2.718458	94.734391	0.102714	0.736781	0.770473	-9.726417	1.641474	-4.185624	9.993723	0.174423	28.260530	2.212764	0.000000	-9.695823	-1.805042	-2.649151	8.994477	0.156983	28.801497	5.153546	0.000000	0.010637	0.423979	-0.027228	0.019754	0.563891	-0.028929	0.017476	1.030861	-0.028929	0.012157	1.030861	-0.023824	0.009878	0.864577	-0.022122	0.006078	0.656743	-0.020421	0.075979	4.796130	-0.151432	0.000000	0.000000	4.674598	15.058845	41.373910	-85.588955	-197.607833	-103.903460	93.998550	12.197060	-20.868213	6.593210	-89.227473	-116.972891	-186.149927	125.296687	81.075043	19.362589	-13.320447
2.200000	0.856818	2.790078	95.034011	0.102293	0.736742	0.769914	-9.904393	1.662737	-4.647128	9.938201	0.173454	28.090134	2.228361	0.000000	-9.801022	-1.848663	-2.525771	8.966417	0.156493	28.714211	5.263936	0.000000	0.001021	0.412913	-0.102098	0.001896	0.549174	-0.108479	0.001678	1.003956	-0.108479	0.001167	1.003956	-0.089335	0.000948	0.842012	-0.082954	0.000583	0.639602	-0.076573	0.007294	4.670951	-0.567836	0.000000	0.000000	5.224729	14.771190	41.078843	-85.216626	-197.853688	-104.067314	93.135632	15.574821	-23.500831	7.893427	-88.762902	-116.226517	-185.568734	125.416262	80.419534	18.611432	-13.174637
2.216667	0.815539	2.900200	95.338729	0.101880	0.736735	0.769447	-10.116667	1.679740	-5.061054	9.886047	0.172544	27.930058	2.176116	0.000000	-9.927512	-1.880229	-2.339960	8.961706	0.156411	28.657859	5.333709	0.000000	-0.013082	0.399259	-0.172101	-0.024295	0.531014	-0.182857	-0.021493	0.970758	-0.182857	-0.014952	0.970758	-0.150588	-0.012148	0.814169	-0.139832	-0.007475	0.618452	-0.129076	-0.093445	4.516498	-0.957174	0.000000	0.000000	5.805494	14.431542	40.688684	-84.873949	-198.057245	-104.224868	92.249625	19.842484	-26.266896	9.480104	-88.251759	-115.656722	-184.864322	125.533803	79.730732	17.838283	-12.902585
2.233333	0.790197	3.020902	95.608625	0.101478	0.736755	0.769080	-10.329252	1.708326	-5.417066	9.830840	0.171581	27.769081	2.115256	0.000000	-10.055238	-1.918391	-2.147125	8.962264	0.156421	28.631364	5.378451	0.000000	-0.026772	0.387816	-0.223241	-0.049718	0.515795	-0.237193	-0.043983	0.942936	-0.237193	-0.030598	0.942936	-0.195336	-0.024860	0.790835	-0.181383	-0.015297	0.600727	-0.167431	-0.191229	4.387054	-1.241599	0.000000	0.000000	6.319977	14.068947	40.246926	-84.529871	-198.206157	-104.287796	91.425570	23.812490	-29.046128	10.896289	-87.723591	-115.363807	-184.197650	125.618154	78.894767	17.675533	-12.377713
2.250000	0.774221	3.136123	95.835065	0.101128	0.736800	0.768800	-10.526634	1.741932	-5.682918	9.769777	0.170515	27.611125	2.024492	0.000000	-10.169009	-1.953863	-1.946423	8.969057	0.156540	28.625056	5.385068	0.000000	-0.039363	0.378122	-0.258419	-0.073101	0.502902	-0.274570	-0.064669	0.919365	-0.274570	-0.044988	0.919365	-0.226117	-0.036552	0.771066	-0.209966	-0.022492	0.585710	-0.193814	-0.281165	4.277387	-1.437250	0.000000	0.000000	6.720821	13.731314	39.841104	-84.219608	-198.344858	-104.291318	90.681258	27.356339	-31.609013	12.144328	-87.175104	-115.267109	-183.564214	125.695830	77.836174	17.976621	-11.527455
2.266667	0.772372	3.227096	96.005302	0.100839	0.736864	0.768603	-10.688730	1.780238	-5.855751	9.701402	0.169321	27.449540	1.919099	0.000000	-10.249528	-1.986872	-1.749896	8.984579	0.156810	28.628822	5.339532	0.000000	-0.049350	0.371507	-0.279767	-0.091649	0.494104	-0.297252	-0.081078	0.903282	-0.297252	-0.056403	0.903282	-0.244796	-0.045827	0.757577	-0.227310	-0.028199	0.575464	-0.209825	-0.352505	4.202560	-1.555978	0.000000	0.000000	6.943190	13.459674	39.539287	-83.947586	-198.487691	-104.245865	90.051577	30.279498	-33.628637	13.211026	-86.639383	-115.314122	-183.028314	125.794553	76.492511	18.723065	-10.263654
2.283333	0.785345	3.283064	96.143152	0.100606	0.736929	0.768488	-10.808680	1.830517	-5.935950	9.620585	0.167911	27.273887	1.757561	0.000000	-10.278622	-2.024994	-1.564699	9.018978	0.157411	28.648469	5.277129	0.000000	-0.056027	0.367718	-0.295099	-0.104049	0.489065	-0.313542	-0.092048	0.894070	-0.313542	-0.064034	0.894070	-0.258211	-0.052027	0.749851	-0.239768	-0.032014	0.569595	-0.221324	-0.400199	4.159699	-1.641250	0.000000	0.000000	6.944708	13.331038	39.386964	-83.700751	-198.622856	-104.147113	89.637961	32.189185	-34.737531	13.905237	-86.105604	-115.446187	-182.591542	125.926915	75.129312	19.766116	-8.766569
2.300000	0.803778	3.310702	96.223727	0.100474	0.737008	0.768488	-10.886181	1.875823	-5.931943	9.539871	0.166502	27.097827	1.583803	0.000000	-10.267264	-2.054905	-1.417849	9.070009	0.158302	28.670903	5.187788	0.000000	-0.061019	0.364744	-0.297167	-0.113318	0.485109	-0.315740	-0.100248	0.886838	-0.315740	-0.069738	0.886838	-0.260021	-0.056662	0.743786	-0.241448	-0.034866	0.564988	-0.222875	-0.435850	4.126055	-1.652752	0.000000	0.000000	6.757406	13.397827	39.262654	-83.488753	-198.697346	-104.032008	89.587941	32.569820	-34.579878	14.166453	-85.569456	-115.666440	-182.207074	126.082579	73.930782	20.906331	-7.223864
